<?xml version="1.0" encoding="iso-8859-1"?>
<!-- Generator: Adobe Illustrator 19.0.0, SVG Export Plug-In . SVG Version: 6.00 Build 0)  -->
<svg version="1.1" id="Layer_1" xmlns="http://www.w3.org/2000/svg" xmlns:xlink="http://www.w3.org/1999/xlink" x="0px" y="0px"
	 viewBox="0 0 511.999 511.999" style="enable-background:new 0 0 511.999 511.999;" xml:space="preserve">
<circle style="fill:#E6E6E6;" cx="255.999" cy="255.999" r="255.999"/>
<g>
	<rect x="143.996" y="368.003" style="fill:#406A80;" width="32" height="64.005"/>
	<rect x="184.002" y="327.997" style="fill:#406A80;" width="32" height="104"/>
	<rect x="223.997" y="288.002" style="fill:#406A80;" width="32" height="143.996"/>
	<rect x="264.003" y="247.996" style="fill:#406A80;" width="32" height="184.002"/>
	<rect x="303.998" y="208.001" style="fill:#406A80;" width="32" height="223.997"/>
	<rect x="344.004" y="167.995" style="fill:#406A80;" width="32" height="264.003"/>
</g>
<g>
	<rect x="143.996" y="440.001" style="fill:#4AB8A1;" width="232" height="8"/>
	<path style="fill:#4AB8A1;" d="M108.004,344.004c-3.124,0-6.088-1.84-7.376-4.9c-1.716-4.08,0.196-8.764,4.268-10.48
		C177.8,297.927,317.004,179.679,344.408,97.467c1.4-4.196,5.932-6.468,10.12-5.064c4.191,1.404,6.456,5.928,5.06,10.12
		C330.432,189.991,188.368,310.83,111.1,343.367C110.088,343.8,109.04,344.004,108.004,344.004z"/>
	<path style="fill:#4AB8A1;" d="M363.992,136c-3.668,0-6.972-2.536-7.8-6.264l-5.776-25.992l-22.836,11.416
		c-3.952,1.972-8.756,0.376-10.736-3.58c-1.976-3.956-0.372-8.756,3.58-10.74l32-16c2.208-1.096,4.796-1.128,7.016-0.068
		c2.228,1.06,3.836,3.084,4.376,5.484l8,36c0.96,4.312-1.756,8.584-6.072,9.548C365.152,135.936,364.572,136,363.992,136z"/>
</g>
<g>
</g>
<g>
</g>
<g>
</g>
<g>
</g>
<g>
</g>
<g>
</g>
<g>
</g>
<g>
</g>
<g>
</g>
<g>
</g>
<g>
</g>
<g>
</g>
<g>
</g>
<g>
</g>
<g>
</g>
</svg>
